<svg width="1200" height="900" viewBox="0 0 1200 900" fill="none" xmlns="http://www.w3.org/2000/svg">
  <rect width="1200" height="900" fill="#1A1D22"/>
  <rect width="1200" height="900" fill="url(#bg)"/>
  <rect x="120" y="216" width="960" height="420" rx="34" fill="#0F1218" stroke="#434C59" stroke-width="2"/>
  <rect x="180" y="286" width="840" height="202" rx="24" fill="#252A33"/>
  <g fill="#F4F7FF">
    <rect x="212" y="312" width="78" height="150" rx="10"/>
    <rect x="300" y="312" width="78" height="150" rx="10"/>
    <rect x="388" y="312" width="78" height="150" rx="10"/>
    <rect x="476" y="312" width="78" height="150" rx="10"/>
    <rect x="564" y="312" width="78" height="150" rx="10"/>
    <rect x="652" y="312" width="78" height="150" rx="10"/>
    <rect x="740" y="312" width="78" height="150" rx="10"/>
    <rect x="828" y="312" width="78" height="150" rx="10"/>
  </g>
  <g fill="#11161F">
    <rect x="264" y="312" width="52" height="98" rx="8"/>
    <rect x="352" y="312" width="52" height="98" rx="8"/>
    <rect x="528" y="312" width="52" height="98" rx="8"/>
    <rect x="616" y="312" width="52" height="98" rx="8"/>
    <rect x="704" y="312" width="52" height="98" rx="8"/>
    <rect x="880" y="312" width="52" height="98" rx="8"/>
  </g>
  <text x="122" y="162" fill="#EDF3FF" font-family="Arial, sans-serif" font-size="72" font-weight="700">SYNTH / KEYBOARD</text>
  <defs>
    <linearGradient id="bg" x1="128" y1="98" x2="1038" y2="812" gradientUnits="userSpaceOnUse">
      <stop stop-color="#3B4556"/>
      <stop offset="1" stop-color="#1B2029"/>
    </linearGradient>
  </defs>
</svg>
