<svg width="1200" height="900" viewBox="0 0 1200 900" xmlns="http://www.w3.org/2000/svg">
  <rect width="1200" height="900" fill="#161A22"/>
  <rect width="1200" height="900" fill="url(#bg)"/>
  <rect x="216" y="278" width="768" height="290" rx="34" fill="#131821" stroke="#44506A" stroke-width="2"/>
  <rect x="256" y="332" width="688" height="150" rx="18" fill="#252C39"/>
  <g fill="#F8FAFF">
    <rect x="284" y="350" width="58" height="116" rx="9"/><rect x="354" y="350" width="58" height="116" rx="9"/><rect x="424" y="350" width="58" height="116" rx="9"/><rect x="494" y="350" width="58" height="116" rx="9"/><rect x="564" y="350" width="58" height="116" rx="9"/><rect x="634" y="350" width="58" height="116" rx="9"/><rect x="704" y="350" width="58" height="116" rx="9"/><rect x="774" y="350" width="58" height="116" rx="9"/>
  </g>
  <text x="220" y="226" fill="#EEF3FF" font-family="Arial, sans-serif" font-size="72" font-weight="700">MICROKEY AIR 37</text>
  <defs><linearGradient id="bg" x1="134" y1="94" x2="1060" y2="812"><stop stop-color="#2F394C"/><stop offset="1" stop-color="#151A23"/></linearGradient></defs>
</svg>
