<svg width="1200" height="900" viewBox="0 0 1200 900" fill="none" xmlns="http://www.w3.org/2000/svg">
  <rect width="1200" height="900" fill="#171321"/>
  <rect width="1200" height="900" fill="url(#sky)"/>
  <circle cx="874" cy="204" r="108" fill="#FFD478"/>
  <path d="M0 603H1200V900H0V603Z" fill="#10131C"/>
  <path d="M137 530H262V900H137V530Z" fill="#20293A"/>
  <path d="M286 420H430V900H286V420Z" fill="#1B2232"/>
  <path d="M470 330H618V900H470V330Z" fill="#23283A"/>
  <path d="M654 462H816V900H654V462Z" fill="#1B2232"/>
  <path d="M853 382H1028V900H853V382Z" fill="#23283A"/>
  <g opacity="0.95">
    <rect x="174" y="570" width="18" height="18" fill="#7EE5FF"/>
    <rect x="206" y="570" width="18" height="18" fill="#F5A2FF"/>
    <rect x="174" y="604" width="18" height="18" fill="#F9D86C"/>
    <rect x="206" y="604" width="18" height="18" fill="#7EE5FF"/>
    <rect x="332" y="476" width="20" height="20" fill="#7EE5FF"/>
    <rect x="366" y="476" width="20" height="20" fill="#F9D86C"/>
    <rect x="332" y="512" width="20" height="20" fill="#F5A2FF"/>
    <rect x="366" y="512" width="20" height="20" fill="#7EE5FF"/>
    <rect x="532" y="392" width="22" height="22" fill="#F9D86C"/>
    <rect x="570" y="392" width="22" height="22" fill="#7EE5FF"/>
    <rect x="532" y="430" width="22" height="22" fill="#F5A2FF"/>
    <rect x="570" y="430" width="22" height="22" fill="#F9D86C"/>
  </g>
  <text x="106" y="176" fill="#E7D5FF" font-family="Arial, sans-serif" font-size="70" font-weight="700">CITY DRIVE</text>
  <text x="108" y="242" fill="#9ED8FF" font-family="Arial, sans-serif" font-size="36">Night bridge progression</text>
  <defs>
    <linearGradient id="sky" x1="600" y1="0" x2="600" y2="900" gradientUnits="userSpaceOnUse">
      <stop stop-color="#52406C"/>
      <stop offset="0.45" stop-color="#2E355A"/>
      <stop offset="1" stop-color="#12161F"/>
    </linearGradient>
  </defs>
</svg>
