<svg width="1200" height="900" viewBox="0 0 1200 900" fill="none" xmlns="http://www.w3.org/2000/svg">
  <rect width="1200" height="900" fill="#131720"/>
  <rect width="1200" height="900" fill="url(#bg)"/>
  <circle cx="243" cy="223" r="136" fill="#8AB4FF" fill-opacity="0.42"/>
  <circle cx="954" cy="688" r="168" fill="#FF7AA2" fill-opacity="0.28"/>
  <rect x="120" y="136" width="960" height="628" rx="40" fill="#11151D" fill-opacity="0.58" stroke="#3B4458" stroke-width="2"/>
  <rect x="176" y="194" width="514" height="332" rx="28" fill="#1F2735"/>
  <path d="M257 470C308 394 372 366 449 366C507 366 559 383 606 418L606 470H257Z" fill="#FF8CAB"/>
  <circle cx="346" cy="320" r="48" fill="#DCE7FF"/>
  <circle cx="518" cy="300" r="38" fill="#DCE7FF" fill-opacity="0.9"/>
  <path d="M799 218H982V560H799V218Z" fill="#1F2735"/>
  <rect x="824" y="250" width="36" height="268" rx="18" fill="#A2C1FF"/>
  <rect x="880" y="286" width="36" height="232" rx="18" fill="#A2C1FF"/>
  <rect x="936" y="340" width="36" height="178" rx="18" fill="#FF96B6"/>
  <text x="176" y="632" fill="#EEF3FF" font-family="Arial, sans-serif" font-size="76" font-weight="700">HOOK IDEA</text>
  <text x="176" y="704" fill="#94A7CC" font-family="Arial, sans-serif" font-size="40">POP SESSION</text>
  <defs>
    <linearGradient id="bg" x1="128" y1="95" x2="1058" y2="795" gradientUnits="userSpaceOnUse">
      <stop stop-color="#263042"/>
      <stop offset="1" stop-color="#161B25"/>
    </linearGradient>
  </defs>
</svg>
